<svg xmlns="http://www.w3.org/2000/svg" xmlns:xlink="http://www.w3.org/1999/xlink" width="2500" zoomAndPan="magnify" viewBox="0 0 1874.88 1874.999927" height="2500" preserveAspectRatio="xMidYMid meet" version="1.2"><defs><clipPath id="57b4c36b55"><path d="M 0 0.0585938 L 1874.761719 0.0585938 L 1874.761719 1874.9375 L 0 1874.9375 Z M 0 0.0585938 "/></clipPath><clipPath id="3daa8e08e1"><path d="M 753.050781 758 L 1078.605469 758 L 1078.605469 1117 L 753.050781 1117 Z M 753.050781 758 "/></clipPath><clipPath id="1e110c4caf"><path d="M 1056.703125 974.710938 L 818.167969 1111.019531 C 804.695312 1118.714844 788.148438 1118.660156 774.730469 1110.875 C 761.3125 1103.085938 753.050781 1088.746094 753.050781 1073.230469 L 753.050781 801.777344 C 753.050781 786.261719 761.3125 771.921875 774.730469 764.132812 C 788.148438 756.347656 804.695312 756.292969 818.167969 763.988281 L 1056.703125 900.296875 C 1070.058594 907.925781 1078.296875 922.125 1078.296875 937.503906 C 1078.296875 952.882812 1070.058594 967.082031 1056.703125 974.710938 Z M 1056.703125 974.710938 "/></clipPath></defs><g id="3cdb3c4b50"><g clip-rule="nonzero" clip-path="url(#57b4c36b55)"><path style=" stroke:none;fill-rule:nonzero;fill:#ffffff;fill-opacity:1;" d="M 0 0.0585938 L 1874.878906 0.0585938 L 1874.878906 1874.941406 L 0 1874.941406 Z M 0 0.0585938 "/><path style=" stroke:none;fill-rule:nonzero;fill:#ffffff;fill-opacity:1;" d="M 0 0.0585938 L 1874.878906 0.0585938 L 1874.878906 1874.941406 L 0 1874.941406 Z M 0 0.0585938 "/></g><g clip-rule="nonzero" clip-path="url(#3daa8e08e1)"><g clip-rule="nonzero" clip-path="url(#1e110c4caf)"><path style=" stroke:none;fill-rule:nonzero;fill:#ffffff;fill-opacity:1;" d="M 1121.816406 726.78125 L 1121.816406 1148.84375 L 753.050781 1148.84375 L 753.050781 726.78125 Z M 1121.816406 726.78125 "/></g></g></g></svg>