<svg xmlns="http://www.w3.org/2000/svg" xmlns:xlink="http://www.w3.org/1999/xlink" width="150" zoomAndPan="magnify" viewBox="0 0 112.5 112.499997" height="150" preserveAspectRatio="xMidYMid meet" version="1.2"><defs><clipPath id="875127f12e"><path d="M 35.933594 34.800781 L 73.542969 34.800781 L 73.542969 77.113281 L 35.933594 77.113281 Z M 35.933594 34.800781 "/></clipPath><clipPath id="f9cba4ed2c"><path d="M 72.160156 58.226562 L 39.820312 76.703125 C 39.015625 77.164062 38.027344 77.160156 37.226562 76.695312 C 36.425781 76.230469 35.933594 75.375 35.933594 74.449219 L 35.933594 37.558594 C 35.933594 36.628906 36.425781 35.773438 37.226562 35.308594 C 38.027344 34.84375 39.015625 34.839844 39.820312 35.300781 L 72.160156 53.78125 C 72.957031 54.234375 73.453125 55.082031 73.453125 56.003906 C 73.453125 56.921875 72.957031 57.769531 72.160156 58.226562 Z M 72.160156 58.226562 "/></clipPath></defs><g id="db1cb3221f"><g clip-rule="nonzero" clip-path="url(#875127f12e)"><g clip-rule="nonzero" clip-path="url(#f9cba4ed2c)"><path style=" stroke:none;fill-rule:nonzero;fill:#ffffff;fill-opacity:1;" d="M 76.050781 33.078125 L 76.050781 78.996094 L 35.933594 78.996094 L 35.933594 33.078125 Z M 76.050781 33.078125 "/></g></g></g></svg>