<svg xmlns="http://www.w3.org/2000/svg" xmlns:xlink="http://www.w3.org/1999/xlink" width="2500" zoomAndPan="magnify" viewBox="0 0 1874.88 1874.999927" height="2500" preserveAspectRatio="xMidYMid meet" version="1.2"><defs><clipPath id="0689006afd"><path d="M 117.179688 31 L 1715 31 L 1715 1844 L 117.179688 1844 Z M 117.179688 31 "/></clipPath><clipPath id="1b749a4780"><path d="M 1692.585938 974.707031 L 182.292969 1837.730469 C 168.824219 1845.429688 152.273438 1845.375 138.855469 1837.585938 C 125.4375 1829.800781 117.179688 1815.457031 117.179688 1799.945312 L 117.179688 75.054688 C 117.179688 59.542969 125.4375 45.199219 138.855469 37.414062 C 152.273438 29.625 168.824219 29.570312 182.292969 37.269531 L 1692.585938 900.292969 C 1705.9375 907.921875 1714.179688 922.121094 1714.179688 937.5 C 1714.179688 952.878906 1705.9375 967.078125 1692.585938 974.707031 Z M 1692.585938 974.707031 "/></clipPath></defs><g id="6df1d71713"><g clip-rule="nonzero" clip-path="url(#0689006afd)"><g clip-rule="nonzero" clip-path="url(#1b749a4780)"><path style=" stroke:none;fill-rule:nonzero;fill:#ffffff;fill-opacity:1;" d="M 1757.699219 0.0585938 L 1757.699219 1877.6875 L 117.179688 1877.6875 L 117.179688 0.0585938 Z M 1757.699219 0.0585938 "/></g></g></g></svg>