<svg xmlns="http://www.w3.org/2000/svg" xmlns:xlink="http://www.w3.org/1999/xlink" width="2500" zoomAndPan="magnify" viewBox="0 0 1874.88 1874.999927" height="2500" preserveAspectRatio="xMidYMid meet" version="1.2"><defs><clipPath id="1d3f23f688"><path d="M 753.050781 758 L 1078.605469 758 L 1078.605469 1117 L 753.050781 1117 Z M 753.050781 758 "/></clipPath><clipPath id="0d5a592326"><path d="M 1056.703125 974.710938 L 818.167969 1111.019531 C 804.695312 1118.714844 788.148438 1118.660156 774.730469 1110.875 C 761.3125 1103.085938 753.050781 1088.746094 753.050781 1073.230469 L 753.050781 801.777344 C 753.050781 786.261719 761.3125 771.921875 774.730469 764.132812 C 788.148438 756.347656 804.695312 756.292969 818.167969 763.988281 L 1056.703125 900.296875 C 1070.058594 907.925781 1078.296875 922.125 1078.296875 937.503906 C 1078.296875 952.882812 1070.058594 967.082031 1056.703125 974.710938 Z M 1056.703125 974.710938 "/></clipPath></defs><g id="84b0efba20"><g clip-rule="nonzero" clip-path="url(#1d3f23f688)"><g clip-rule="nonzero" clip-path="url(#0d5a592326)"><path style=" stroke:none;fill-rule:nonzero;fill:#ffffff;fill-opacity:1;" d="M 1121.816406 726.78125 L 1121.816406 1148.84375 L 753.050781 1148.84375 L 753.050781 726.78125 Z M 1121.816406 726.78125 "/></g></g></g></svg>