<svg xmlns="http://www.w3.org/2000/svg" xmlns:xlink="http://www.w3.org/1999/xlink" width="2500" zoomAndPan="magnify" viewBox="0 0 1874.88 1874.999927" height="2500" preserveAspectRatio="xMidYMid meet" version="1.2"><defs><clipPath id="02d9c25163"><path d="M 0 0.0585938 L 1874.761719 0.0585938 L 1874.761719 1874.9375 L 0 1874.9375 Z M 0 0.0585938 "/></clipPath><clipPath id="2836ec2d3f"><path d="M 193 1315 L 1684.15625 1315 L 1684.15625 1874.9375 L 193 1874.9375 Z M 193 1315 "/></clipPath></defs><g id="865236ec71"><g clip-rule="nonzero" clip-path="url(#02d9c25163)"><path style=" stroke:none;fill-rule:nonzero;fill:#ffffff;fill-opacity:1;" d="M 0 0.0585938 L 1874.878906 0.0585938 L 1874.878906 1874.941406 L 0 1874.941406 Z M 0 0.0585938 "/><path style=" stroke:none;fill-rule:nonzero;fill:#ffffff;fill-opacity:1;" d="M 0 0.0585938 L 1874.878906 0.0585938 L 1874.878906 1874.941406 L 0 1874.941406 Z M 0 0.0585938 "/></g><path style=" stroke:none;fill-rule:nonzero;fill:#6666ff;fill-opacity:1;" d="M 995.234375 6.636719 C 984.144531 9.636719 956.6875 0.671875 935.460938 8.390625 C 914.234375 16.113281 894.78125 26.429688 876.835938 38.308594 C 858.890625 50.183594 842.195312 63.085938 828.925781 77.316406 C 815.660156 91.546875 807.773438 104.648438 801.753906 118.738281 C 795.738281 132.828125 791.628906 147.867188 789.25 163.792969 C 786.871094 179.71875 786.035156 196.550781 788.289062 216.96875 C 790.542969 237.386719 795.65625 257.390625 803.242188 275.164062 C 810.828125 292.941406 820.628906 308.578125 832.863281 321.847656 C 845.101562 335.113281 859.734375 345.777344 881.378906 353.667969 C 903.027344 361.558594 927.058594 366.558594 949.554688 367.949219 C 972.050781 369.335938 992.890625 366.597656 1011.3125 359.203125 C 1029.734375 351.808594 1044.351562 339.398438 1049.203125 325.828125 C 1054.058594 312.257812 1047.996094 305.019531 1042.042969 310 C 1042.042969 310 1021.976562 307.78125 1009.820312 310.835938 C 997.667969 313.890625 984.539062 315.785156 969.050781 315.875 C 953.566406 315.960938 935.296875 314.136719 914.640625 309.5625 C 893.984375 304.988281 884.683594 300.8125 875.265625 294.839844 C 865.847656 288.867188 857.535156 280.292969 850.289062 268.929688 C 843.046875 257.570312 836.945312 243.324219 832.007812 226.570312 C 827.070312 209.816406 826.394531 196.320312 827.089844 182.847656 C 827.785156 169.371094 830.320312 157.183594 834.320312 146.242188 C 838.316406 135.304688 843.808594 125.589844 850.390625 117.773438 C 856.976562 109.960938 870.617188 99.503906 886.222656 89.109375 C 901.828125 78.714844 918.804688 69.65625 936.585938 60.824219 C 954.371094 51.988281 972.480469 41.660156 979.546875 29.429688 C 997.476562 13.777344 984.367188 10.054688 995.234375 6.636719 Z M 995.234375 6.636719 "/><path style=" stroke:none;fill-rule:nonzero;fill:#6666ff;fill-opacity:1;" d="M 981.589844 6.636719 C 992.675781 9.636719 1020.136719 0.671875 1041.359375 8.390625 C 1062.585938 16.113281 1082.042969 26.429688 1099.988281 38.308594 C 1117.929688 50.183594 1134.628906 63.085938 1147.894531 77.316406 C 1161.160156 91.546875 1169.050781 104.648438 1175.066406 118.738281 C 1181.085938 132.828125 1185.195312 147.867188 1187.570312 163.792969 C 1189.949219 179.71875 1190.789062 196.550781 1188.53125 216.96875 C 1186.277344 237.386719 1181.164062 257.390625 1173.578125 275.164062 C 1165.992188 292.941406 1156.191406 308.578125 1143.957031 321.847656 C 1131.722656 335.113281 1117.089844 345.777344 1095.441406 353.667969 C 1073.792969 361.558594 1049.761719 366.558594 1027.265625 367.949219 C 1004.769531 369.335938 983.933594 366.597656 965.511719 359.203125 C 947.089844 351.808594 932.46875 339.398438 927.617188 325.828125 C 922.765625 312.257812 928.824219 305.019531 934.777344 310 C 934.777344 310 954.84375 307.78125 967 310.835938 C 979.152344 313.890625 992.28125 315.785156 1007.769531 315.875 C 1023.257812 315.960938 1041.523438 314.136719 1062.179688 309.5625 C 1082.835938 304.988281 1092.136719 300.8125 1101.554688 294.839844 C 1110.972656 288.867188 1119.289062 280.292969 1126.53125 268.929688 C 1133.773438 257.570312 1139.875 243.324219 1144.8125 226.570312 C 1149.75 209.816406 1150.425781 196.320312 1149.730469 182.847656 C 1149.035156 169.371094 1146.5 157.183594 1142.503906 146.242188 C 1138.503906 135.304688 1133.015625 125.589844 1126.429688 117.773438 C 1119.847656 109.960938 1106.203125 99.503906 1090.597656 89.109375 C 1074.992188 78.714844 1058.015625 69.65625 1040.234375 60.824219 C 1022.453125 51.988281 1004.34375 41.660156 997.277344 29.429688 C 979.34375 13.777344 992.453125 10.054688 981.589844 6.636719 Z M 981.589844 6.636719 "/><path style=" stroke:none;fill-rule:nonzero;fill:#6666ff;fill-opacity:1;" d="M 983.066406 568.101562 C 988.933594 562.132812 1007.410156 555.878906 1028.03125 548.589844 C 1048.65625 541.296875 1073.332031 534.050781 1102.4375 526.449219 C 1131.539062 518.84375 1165.160156 510.234375 1192.007812 506.707031 C 1218.859375 503.175781 1235.730469 503.203125 1252.171875 506.082031 C 1268.617188 508.957031 1284.644531 514.613281 1300.765625 522.242188 C 1316.882812 529.867188 1332.90625 540.289062 1349.828125 554.789062 C 1366.75 569.292969 1381.832031 587.015625 1393.804688 604.03125 C 1405.777344 621.050781 1414.195312 637.785156 1419.1875 654.183594 C 1424.179688 670.582031 1426.191406 686.628906 1426.214844 707.03125 C 1426.238281 727.433594 1424.523438 749.574219 1420.429688 771.824219 C 1416.332031 794.074219 1409.851562 816.660156 1401.660156 840.179688 C 1393.46875 863.703125 1384.285156 889.007812 1381.617188 912.769531 C 1378.953125 936.53125 1384.753906 940.097656 1392.429688 927.609375 C 1392.429688 927.609375 1425.492188 912.691406 1440.890625 887.414062 C 1456.292969 862.132812 1467.621094 835.832031 1474.304688 808.816406 C 1480.988281 781.804688 1483.976562 754.679688 1483.242188 728.238281 C 1482.503906 701.796875 1480.808594 680.769531 1474.894531 658.914062 C 1468.976562 637.054688 1459.640625 615.925781 1446.589844 595.730469 C 1433.539062 575.535156 1417.234375 556.019531 1397.074219 537.601562 C 1376.910156 519.183594 1358.589844 504.050781 1339.351562 492.535156 C 1320.109375 481.015625 1300.144531 472.597656 1279.566406 467.605469 C 1258.984375 462.613281 1238.050781 460.832031 1216.671875 462.085938 C 1195.292969 463.335938 1156.832031 472.601562 1123.335938 481.617188 C 1089.839844 490.632812 1061.464844 501.773438 1038.566406 514.988281 C 1015.671875 528.199219 998.667969 543.148438 992.957031 551.765625 C 981.390625 566.496094 988.921875 561.984375 983.066406 568.101562 Z M 983.066406 568.101562 "/><path style=" stroke:none;fill-rule:nonzero;fill:#6666ff;fill-opacity:1;" d="M 993.753906 568.101562 C 987.886719 562.132812 969.410156 555.878906 948.789062 548.589844 C 928.164062 541.296875 903.488281 534.050781 874.386719 526.449219 C 845.285156 518.84375 811.664062 510.234375 784.8125 506.707031 C 757.960938 503.175781 741.089844 503.203125 724.648438 506.082031 C 708.203125 508.957031 692.175781 514.613281 676.054688 522.242188 C 659.9375 529.867188 643.914062 540.289062 626.992188 554.789062 C 610.070312 569.292969 594.988281 587.015625 583.015625 604.03125 C 571.042969 621.050781 562.625 637.785156 557.632812 654.183594 C 552.640625 670.582031 550.632812 686.628906 550.609375 707.03125 C 550.585938 727.433594 552.300781 749.574219 556.394531 771.824219 C 560.488281 794.074219 566.96875 816.660156 575.160156 840.179688 C 583.351562 863.703125 592.539062 889.007812 595.203125 912.769531 C 597.871094 936.53125 592.070312 940.097656 584.390625 927.609375 C 584.390625 927.609375 551.328125 912.691406 535.929688 887.414062 C 520.53125 862.132812 509.199219 835.832031 502.515625 808.816406 C 495.832031 781.804688 492.84375 754.679688 493.582031 728.238281 C 494.316406 701.796875 496.011719 680.769531 501.929688 658.914062 C 507.84375 637.054688 517.183594 615.925781 530.230469 595.730469 C 543.28125 575.535156 559.585938 556.019531 579.75 537.601562 C 599.910156 519.183594 618.230469 504.050781 637.472656 492.535156 C 656.710938 481.015625 676.675781 472.597656 697.257812 467.605469 C 717.835938 462.613281 738.769531 460.832031 760.148438 462.085938 C 781.527344 463.335938 819.988281 472.601562 853.484375 481.617188 C 886.984375 490.632812 915.359375 501.773438 938.253906 514.988281 C 961.152344 528.199219 978.152344 543.148438 983.867188 551.765625 C 995.433594 566.496094 987.898438 561.984375 993.753906 568.101562 Z M 993.753906 568.101562 "/><path style=" stroke:none;fill-rule:nonzero;fill:#6666ff;fill-opacity:1;" d="M 514.988281 675.453125 C 512.160156 685.957031 504.761719 706.796875 502.992188 728.605469 C 501.21875 750.414062 500.902344 772.796875 504.679688 795.382812 C 508.457031 817.96875 515.179688 840.707031 528.550781 869.652344 C 541.917969 898.601562 561.703125 933.496094 583.578125 969.367188 C 605.453125 1005.234375 629.742188 1041.953125 657.101562 1079.046875 C 684.460938 1116.136719 715.601562 1152.9375 745.640625 1175.800781 C 775.675781 1198.664062 789.21875 1186.882812 773.101562 1168.363281 C 773.101562 1168.363281 752.605469 1121.476562 723.292969 1085.632812 C 693.976562 1049.785156 666.773438 1015.03125 641.945312 981.070312 C 617.113281 947.109375 595.632812 913.304688 577.078125 880.136719 C 558.527344 846.964844 549.355469 827.523438 541.648438 808 C 533.945312 788.476562 529.882812 768.582031 526.496094 748.699219 C 523.105469 728.816406 522.984375 708.585938 521.929688 698.136719 C 523.175781 677.261719 512.683594 685.882812 514.988281 675.453125 Z M 514.988281 675.453125 "/><path style=" stroke:none;fill-rule:nonzero;fill:#6666ff;fill-opacity:1;" d="M 1443.800781 809.273438 L 1441.972656 814.394531 C 1382.441406 957.660156 1310.441406 1084.597656 1225.96875 1195.203125 C 1138.246094 1310.128906 1028.839844 1418.261719 897.75 1519.613281 C 898.710938 1526.617188 905.53125 1541.683594 918.210938 1564.804688 L 953.238281 1535.59375 C 1068.554688 1435.910156 1173.605469 1324.898438 1268.390625 1202.558594 C 1332.039062 1123.261719 1380.363281 1046.945312 1413.371094 973.609375 C 1429.71875 938.121094 1441.730469 903.5625 1449.402344 869.941406 C 1452.566406 851.890625 1453.796875 841.226562 1453.089844 837.957031 C 1453.214844 831.296875 1450.25 825.046875 1444.199219 819.207031 C 1443.308594 816.03125 1443.175781 812.722656 1443.800781 809.273438 Z M 1443.800781 809.273438 "/><path style=" stroke:none;fill-rule:nonzero;fill:#6666ff;fill-opacity:1;" d="M 699.164062 1102.644531 C 704.1875 1106.515625 713.875 1121.394531 728.972656 1139.769531 C 744.074219 1158.144531 764.949219 1180.054688 790.03125 1207.21875 C 815.113281 1234.382812 845.386719 1265.835938 874.671875 1287.824219 C 903.957031 1309.8125 911.183594 1302.882812 894.5 1285.480469 C 894.5 1285.480469 869.65625 1242.4375 839.898438 1213.277344 C 810.136719 1184.117188 784.617188 1160.117188 763.105469 1141.511719 C 741.597656 1122.90625 722.296875 1111.773438 713.980469 1108.191406 C 700.558594 1100.785156 704.277344 1106.46875 699.164062 1102.644531 Z M 699.164062 1102.644531 "/><path style=" stroke:none;fill-rule:nonzero;fill:#6666ff;fill-opacity:1;" d="M 889.910156 1294.585938 C 902.640625 1284.445312 936.46875 1269.765625 965.171875 1244.550781 C 993.878906 1219.332031 1022.632812 1189.585938 1052.046875 1156.054688 C 1081.460938 1122.523438 1112.21875 1085.851562 1136.109375 1054.898438 C 1159.996094 1023.945312 1173.9375 1001.109375 1186.652344 978.128906 C 1199.367188 955.148438 1209.960938 931.507812 1219.109375 907.539062 C 1228.257812 883.574219 1236.324219 859.320312 1241.945312 837.640625 C 1247.570312 815.957031 1251.015625 798.464844 1252.632812 782.554688 C 1254.253906 766.648438 1254.042969 752.34375 1252.875 739.539062 C 1251.710938 726.734375 1248.90625 715.273438 1244.730469 704 C 1240.558594 692.730469 1234.398438 680.046875 1226.714844 668.914062 C 1219.03125 657.78125 1209.734375 648.378906 1198.84375 641.085938 C 1187.953125 633.796875 1175.800781 628.613281 1154.574219 626.253906 C 1133.347656 623.898438 1107.238281 627.816406 1083.058594 638.164062 C 1058.882812 648.511719 1037.273438 665.109375 1018.660156 687.457031 C 1000.050781 709.804688 985.628906 738.175781 982.992188 764.109375 C 980.359375 790.046875 989.453125 794.308594 996.28125 779.75 C 996.28125 779.75 1025.144531 758.832031 1040.160156 737.910156 C 1055.175781 716.988281 1070.035156 701.09375 1085.796875 690.339844 C 1101.554688 679.585938 1118.527344 673.4375 1137.527344 671.726562 C 1156.527344 670.015625 1161.644531 671.332031 1168.328125 674.328125 C 1175.007812 677.324219 1180.910156 681.703125 1186.40625 687.53125 C 1191.902344 693.355469 1196.839844 701.023438 1201.304688 710.941406 C 1205.773438 720.863281 1208.089844 727.019531 1209.15625 734.605469 C 1210.222656 742.191406 1210.195312 752.265625 1208.78125 764.582031 C 1207.367188 776.902344 1205.714844 791.507812 1203.121094 808.21875 C 1200.527344 824.933594 1195.261719 847.9375 1188.089844 870.367188 C 1180.914062 892.800781 1171.992188 914.808594 1161.136719 936.285156 C 1150.28125 957.761719 1137.730469 978.808594 1123.382812 998.957031 C 1109.035156 1019.109375 1077.550781 1056.707031 1046.964844 1091.195312 C 1016.375 1125.683594 987.703125 1157.351562 961.039062 1186.34375 C 934.371094 1215.339844 911.300781 1243.410156 903.289062 1259.808594 C 883.136719 1286.882812 902.054688 1283.910156 889.910156 1294.585938 Z M 889.910156 1294.585938 "/><path style=" stroke:none;fill-rule:nonzero;fill:#6666ff;fill-opacity:1;" d="M 994.855469 764.832031 C 995.6875 754.773438 1007.554688 735.589844 1008.664062 717.535156 C 1009.773438 699.484375 1008.058594 682.558594 1001.605469 667.726562 C 995.152344 652.890625 984.925781 640.730469 975.402344 634.703125 C 965.878906 628.671875 958.269531 624.835938 950.289062 621.980469 C 942.3125 619.121094 933.875 617.699219 925.25 616.675781 C 916.625 615.65625 907.640625 615.410156 898.808594 615.800781 C 889.976562 616.195312 881.558594 617.460938 873.339844 619.273438 C 865.121094 621.085938 857.140625 623.601562 849.066406 626.136719 C 840.988281 628.667969 834.3125 634.09375 823.683594 642.179688 C 813.050781 650.265625 800.488281 660.359375 790.707031 671.945312 C 780.929688 683.53125 773.839844 696.179688 767.652344 709.15625 C 761.46875 722.132812 759.101562 736.335938 759.414062 753.261719 C 759.730469 770.1875 762.679688 789.003906 768.421875 806.53125 C 774.160156 824.054688 782.453125 840.121094 793.570312 854.101562 C 804.691406 868.078125 819.492188 878.316406 833.402344 880.5 C 847.308594 882.679688 858.75 868.644531 852.769531 863.769531 C 852.769531 863.769531 850.683594 843.761719 843.976562 833.160156 C 837.265625 822.558594 831.234375 812.101562 826.25 800.644531 C 821.265625 789.183594 817.449219 776.320312 814.6875 761.796875 C 811.925781 747.273438 811.367188 739.835938 811.898438 732.222656 C 812.429688 724.609375 814.285156 716.125 819.539062 707.703125 C 824.789062 699.285156 831.921875 690.175781 841.253906 680.667969 C 850.59375 671.164062 854.652344 668.722656 859.792969 665.8125 C 864.933594 662.902344 870.523438 661.113281 876.152344 659.335938 C 881.78125 657.558594 887.75 656.683594 893.980469 656.121094 C 900.207031 655.558594 907.207031 655.558594 913.277344 656.125 C 919.347656 656.695312 924.523438 658.136719 928.714844 660.289062 C 932.902344 662.445312 936.398438 664.589844 938.75 667.847656 C 941.101562 671.105469 946.703125 677.367188 950.890625 683.800781 C 955.082031 690.234375 960.066406 698.699219 965.808594 710.292969 C 971.546875 721.882812 976.066406 737.082031 982.4375 745.820312 C 988.347656 764.53125 995.316406 754.859375 994.855469 764.832031 Z M 994.855469 764.832031 "/><g clip-rule="nonzero" clip-path="url(#2836ec2d3f)"><path style=" stroke:none;fill-rule:nonzero;fill:#6666ff;fill-opacity:1;" d="M 888.9375 1521.855469 C 871.21875 1506.972656 850.789062 1461.222656 817.75 1435.941406 C 784.707031 1410.660156 751.59375 1390.878906 719.402344 1375.535156 C 687.210938 1360.1875 656.335938 1348.714844 624.910156 1339.101562 C 593.488281 1329.492188 560.046875 1322.039062 527.570312 1318.242188 C 495.097656 1314.445312 463.535156 1314.636719 432.960938 1318.851562 C 402.386719 1323.066406 372.863281 1331.289062 341.449219 1346.902344 C 310.035156 1362.515625 281.089844 1384.226562 258.089844 1409.332031 C 235.085938 1434.4375 218.089844 1462.75 207.199219 1494.078125 C 196.308594 1525.40625 191.222656 1559.558594 195.335938 1594.234375 C 199.449219 1628.914062 212.238281 1656.992188 231.078125 1681.304688 C 249.917969 1705.613281 274.332031 1726.125 304.21875 1742.546875 C 334.101562 1758.96875 369.214844 1771.460938 404.113281 1779.519531 C 439.007812 1787.574219 471.445312 1791.121094 505.28125 1791.269531 C 539.117188 1791.417969 574.324219 1788.136719 610.878906 1781.464844 C 647.433594 1774.796875 685.332031 1764.769531 711.484375 1756.613281 C 737.636719 1748.457031 755.136719 1741.851562 777.195312 1732.257812 C 799.257812 1722.660156 826.03125 1709.9375 857.699219 1694.226562 C 889.371094 1678.515625 925.902344 1659.667969 977.945312 1629.628906 C 1029.988281 1599.59375 1086.019531 1565.878906 1131.1875 1539.125 C 1176.355469 1512.375 1210.609375 1492.59375 1233.835938 1480.03125 C 1257.0625 1467.464844 1268.109375 1462.242188 1282.882812 1456.433594 C 1297.65625 1450.625 1320.824219 1441.90625 1343.457031 1434.652344 C 1366.089844 1427.394531 1388.265625 1421.847656 1409.914062 1417.71875 C 1431.5625 1413.589844 1452.726562 1410.996094 1474.816406 1409.90625 C 1496.902344 1408.820312 1517.636719 1410.355469 1535.488281 1414.878906 C 1553.339844 1419.40625 1568.582031 1426.855469 1581.773438 1437.242188 C 1594.960938 1447.628906 1606.316406 1461.375 1615 1478.617188 C 1623.6875 1495.859375 1629.351562 1515.753906 1631.519531 1536.183594 C 1633.6875 1556.609375 1632.476562 1577.757812 1628.023438 1599.933594 C 1623.574219 1622.109375 1615.832031 1645.53125 1602.359375 1670.371094 C 1588.890625 1695.207031 1570.382812 1719.820312 1550.050781 1740.539062 C 1529.722656 1761.261719 1507.675781 1778.261719 1483.832031 1791.65625 C 1459.988281 1805.054688 1434.300781 1815.070312 1414.675781 1819.902344 C 1395.050781 1824.738281 1381.980469 1826.460938 1369.300781 1827.714844 C 1356.621094 1828.96875 1344.308594 1829.597656 1332.371094 1829.4375 C 1320.433594 1829.273438 1308.875 1828.660156 1297.195312 1827.695312 C 1285.519531 1826.726562 1271.667969 1825.238281 1253.464844 1822.570312 C 1235.261719 1819.898438 1212.816406 1816.089844 1186.15625 1811.332031 C 1159.5 1806.574219 1128.777344 1800.210938 1105.023438 1795.742188 C 1081.265625 1791.277344 1068.875 1789.753906 1056.632812 1788.5 C 1044.394531 1787.242188 1032.308594 1786.199219 1020.371094 1785.445312 C 1008.429688 1784.695312 996.636719 1784.296875 975.71875 1783.921875 C 954.800781 1783.542969 924.746094 1783.96875 895.410156 1786.089844 C 866.078125 1788.210938 837.484375 1791.855469 809.785156 1797.605469 C 782.082031 1803.359375 755.71875 1812.441406 738.257812 1824.582031 C 720.800781 1836.722656 726.648438 1857.019531 739.402344 1853.339844 C 739.402344 1853.339844 768.253906 1859.238281 793.988281 1855.066406 C 819.726562 1850.894531 845.871094 1846.527344 872.792969 1843.054688 C 899.714844 1839.578125 927.492188 1837.359375 956.304688 1836.132812 C 985.113281 1834.910156 996.039062 1834.761719 1007.105469 1834.851562 C 1018.171875 1834.9375 1029.429688 1835.316406 1040.875 1835.984375 C 1052.324219 1836.648438 1063.964844 1837.523438 1075.28125 1838.613281 C 1086.597656 1839.699219 1120 1845.875 1149.773438 1851.132812 C 1179.546875 1856.390625 1205.183594 1860.933594 1226.800781 1864.339844 C 1248.414062 1867.75 1266.066406 1870.019531 1279.574219 1871.371094 C 1293.082031 1872.726562 1305.449219 1873.972656 1318.703125 1874.457031 C 1331.953125 1874.945312 1345.503906 1874.785156 1359.359375 1874.101562 C 1373.214844 1873.417969 1387.378906 1872.070312 1402.527344 1869.871094 C 1417.679688 1867.667969 1448.738281 1859.253906 1478.070312 1846.605469 C 1507.40625 1833.960938 1534.570312 1817.066406 1559.484375 1796.125 C 1584.398438 1775.183594 1607.125 1750.390625 1627.777344 1721.410156 C 1648.425781 1692.433594 1661.890625 1664.308594 1670.8125 1637.269531 C 1679.734375 1610.230469 1684.140625 1583.300781 1684.019531 1556.773438 C 1683.898438 1530.25 1679.4375 1504.355469 1670.507812 1478.972656 C 1661.574219 1453.59375 1647.519531 1431.539062 1630.707031 1413.925781 C 1613.898438 1396.3125 1594.03125 1382.75 1571.429688 1373.726562 C 1548.824219 1364.703125 1523.949219 1360.09375 1497.367188 1359.773438 C 1470.789062 1359.453125 1447.558594 1361.433594 1424.054688 1365.097656 C 1400.546875 1368.757812 1376.746094 1374.117188 1352.679688 1381.210938 C 1328.609375 1388.304688 1304.21875 1396.941406 1279.996094 1407.042969 C 1255.769531 1417.144531 1250 1418.933594 1232.613281 1428.140625 C 1215.222656 1437.351562 1187.886719 1453.128906 1149.839844 1475.683594 C 1111.792969 1498.234375 1063.03125 1527.761719 1003.675781 1564.027344 C 944.316406 1600.292969 905.519531 1620.839844 871.105469 1638.71875 C 836.695312 1656.59375 807.25 1671.25 782.847656 1682.679688 C 758.445312 1694.113281 739.1875 1702.289062 725.023438 1707.347656 C 710.863281 1712.40625 673.507812 1724.527344 638.15625 1733.152344 C 602.808594 1741.78125 569.082031 1747.402344 536.910156 1749.796875 C 504.734375 1752.195312 474.113281 1751.371094 444.996094 1747.539062 C 415.875 1743.707031 380.035156 1735.132812 350.003906 1723.257812 C 319.972656 1711.382812 295.453125 1696.492188 276.199219 1678.640625 C 256.945312 1660.789062 242.707031 1639.847656 233.210938 1616.308594 C 223.71875 1592.773438 223.972656 1561.917969 229.460938 1532.660156 C 234.949219 1503.402344 246.257812 1477.167969 262.957031 1453.613281 C 279.660156 1430.0625 302.023438 1409.132812 329.859375 1390.765625 C 357.699219 1372.398438 383.074219 1363.746094 410.050781 1358.285156 C 437.027344 1352.828125 464.835938 1350.964844 493.570312 1352.859375 C 522.308594 1354.75 552.027344 1360.242188 582.925781 1369.8125 C 613.820312 1379.378906 640.792969 1389.566406 668.46875 1403.722656 C 696.144531 1417.882812 725.429688 1435.367188 756.75 1455.773438 C 788.070312 1476.175781 822.523438 1498.289062 846.847656 1502.65625 C 888.898438 1521.90625 871.214844 1506.976562 888.9375 1521.855469 Z M 888.9375 1521.855469 "/></g></g></svg>